<?xml version="1.0" encoding="UTF-8"?>
<svg width="802px" height="801px" viewBox="0 0 802 801" version="1.1" xmlns="http://www.w3.org/2000/svg" xmlns:xlink="http://www.w3.org/1999/xlink">
    <!-- Generator: Sketch 59.1 (86144) - https://sketch.com -->
    <title>AT&amp;T_Globe_2016</title>
    <desc>Created with Sketch.</desc>
    <g id="Page-1" stroke="none" stroke-width="1" fill="none" fill-rule="evenodd">
        <g id="AT&amp;T_Globe_2016" fill="#009fdb" fill-rule="nonzero">
            <path d="M155.695,716.198991 C223.53,768.709991 308.674,800.258991 401.049,800.258991 C502.141,800.258991 594.297,762.727991 664.633,701.117991 C665.487,700.364991 665.065,699.866991 664.225,700.364991 C632.664,721.443991 542.709,767.454991 401.053,767.454991 C277.949,767.454991 200.151,739.986991 156.216,715.465991 C155.375,715.050991 155.064,715.681991 155.695,716.198991 M428.208,736.641991 C526.669,736.641991 634.866,709.801991 699.577,656.671991 C717.285,642.193991 734.152,622.928991 749.26,597.034991 C757.956,582.135991 766.462,564.435991 773.391,547.036991 C773.699,546.188991 773.174,545.773991 772.537,546.727991 C712.36,635.284991 538.101,690.520991 358.171,690.520991 C230.987,690.520991 94.144,649.849991 40.567,572.193991 C40.039,571.475991 39.512,571.783991 39.834,572.607991 C89.744,678.692991 241.158,736.641991 428.208,736.641991 M320.63,560.657991 C115.848,560.657991 19.289,465.283991 1.775,400.196991 C1.558,399.253991 0.938,399.460991 0.938,400.305991 C0.938,422.216991 3.13,450.493991 6.906,469.261991 C8.705,478.399991 16.14,492.735991 27.041,504.163991 C76.629,555.849991 200.254,628.274991 414.357,628.274991 C706.062,628.274991 772.758,531.106991 786.378,499.149991 C796.117,476.295991 801.162,434.998991 801.162,400.304991 C801.162,391.908991 800.951,385.204991 800.634,378.621991 C800.634,377.554991 800.015,377.466991 799.802,378.507991 C785.227,456.701991 536,560.657991 320.63,560.657991 M39.511,228.728991 C27.779,252.015991 14.771,291.302991 10.904,311.636991 C9.209,320.347991 9.931,324.532991 12.986,331.032991 C37.531,383.108991 161.681,466.430991 451.275,466.430991 C627.949,466.430991 765.193,423.026991 787.427,343.820991 C791.523,329.239991 791.74,313.844991 786.481,293.100991 C780.605,269.918991 769.598,242.889991 760.283,223.908991 C759.975,223.288991 759.433,223.382991 759.544,224.113991 C763.004,328.000991 473.296,394.954991 327.121,394.954991 C168.789,394.954991 36.695,331.870991 36.695,252.216991 C36.695,244.564991 38.28,236.907991 40.257,228.941991 C40.455,228.210991 39.831,228.089991 39.511,228.728991 M665.281,101.177991 C666.963,103.810991 667.801,106.622991 667.801,110.408991 C667.8,154.846991 531.796,233.460991 315.293,233.460991 C156.215,233.460991 126.433,174.446991 126.433,136.916991 C126.433,123.501991 131.578,109.773991 142.91,95.8339912 C143.529,95.0049912 143.003,94.6859912 142.288,95.3009912 C121.622,112.814991 102.634,132.521991 85.976,153.793991 C78.018,163.854991 73.078,172.767991 73.078,178.106991 C73.078,255.879991 268.094,312.270991 450.439,312.270991 C644.73,312.270991 731.443,248.844991 731.443,193.103991 C731.443,173.182991 723.688,161.553991 703.852,139.008991 C690.975,124.340991 678.796,112.399991 665.904,100.643991 C665.281,100.131991 664.847,100.550991 665.281,101.177991 M605.716,56.7489912 C545.752,20.8079912 476.122,0.359991215 401.052,0.359991215 C325.46,0.359991215 253.73,21.5229912 193.552,58.4159912 C175.499,69.5249912 165.341,78.4259912 165.341,89.8719912 C165.341,123.606991 244.181,159.878991 384.054,159.878991 C522.475,159.878991 629.837,120.148991 629.837,81.9039912 C629.837,72.7769912 621.861,66.3899912 605.716,56.7489912" id="path3008"></path>
        </g>
    </g>
</svg>